<?xml version="1.0" encoding="UTF-8"?>
<svg version="1.1" xmlns="http://www.w3.org/2000/svg" width="845" height="714">
<path d="M0 0 C278.85 0 557.7 0 845 0 C845 235.62 845 471.24 845 714 C566.15 714 287.3 714 0 714 C0 478.38 0 242.76 0 0 Z " fill="#050709" transform="translate(0,0)"/>
<path d="M0 0 C0.81070291 0.00037972 1.62140581 0.00075944 2.45667547 0.00115067 C3.38873314 -0.00084038 4.3207908 -0.00283143 5.28109264 -0.00488281 C6.83504817 -0.00051355 6.83504817 -0.00051355 8.42039675 0.00394398 C9.51155965 0.00308955 10.60272256 0.00223513 11.726951 0.00135481 C15.41367717 -0.0003032 19.10035867 0.00522663 22.78708071 0.01067311 C25.41773662 0.01095493 28.04839261 0.01079733 30.67904848 0.0102306 C36.35831415 0.00970518 42.03756836 0.01285388 47.71683115 0.01846844 C55.9281828 0.02658097 64.1395289 0.02919841 72.35088413 0.03045643 C85.67190462 0.03264734 98.992919 0.03930848 112.31393617 0.04875904 C125.25729524 0.05793216 138.20065264 0.06501348 151.1440143 0.06926686 C151.94127939 0.06952958 152.73854449 0.0697923 153.55996913 0.07006299 C157.55944551 0.07136799 161.55892191 0.0726317 165.55839831 0.07387489 C198.76019988 0.08424872 231.96199397 0.10186809 265.16378969 0.1241985 C265.18905708 7.369064 265.20662149 14.61391824 265.21872133 21.85881764 C265.22376325 24.32561883 265.23059659 26.79241702 265.23922914 29.25920826 C265.25130094 32.79624378 265.25701925 36.33323995 265.26144594 39.87029225 C265.26660722 40.98069371 265.27176851 42.09109516 265.2770862 43.23514515 C265.27719949 44.76661938 265.27719949 44.76661938 265.27731508 46.32903248 C265.27953569 47.23282139 265.2817563 48.1366103 265.28404421 49.06778675 C265.16378969 51.1241985 265.16378969 51.1241985 264.16378969 52.1241985 C261.57138589 52.22198391 259.00564273 52.25414611 256.41279787 52.24445301 C255.18032519 52.24573465 255.18032519 52.24573465 253.92295408 52.24704218 C251.14831189 52.2486995 248.37372912 52.24317151 245.59909242 52.23772389 C243.61867455 52.23744204 241.63825657 52.23759969 239.65783876 52.23816639 C234.26343284 52.23845448 228.86904895 52.23255598 223.47464818 52.22559243 C217.8438539 52.21936072 212.21305917 52.21875524 206.58226198 52.21756703 C195.91145944 52.21445317 185.24066709 52.20623905 174.56986904 52.19621754 C162.4249755 52.18505808 150.28008149 52.17954637 138.13518411 52.1745221 C113.14471364 52.16405648 88.15425224 52.146456 63.16378969 52.1241985 C68.59843288 58.40166824 68.59843288 58.40166824 74.32321352 64.41301686 C75.4238891 65.51842068 75.4238891 65.51842068 76.54680055 66.64615589 C77.31372728 67.41105839 78.08065401 68.17596089 78.87082094 68.96404225 C80.08072946 70.17538586 80.08072946 70.17538586 81.31508058 71.41120106 C83.00552854 73.10232495 84.69722164 74.79220506 86.39010805 76.48088795 C88.98966449 79.07504552 91.58378644 81.67455275 94.17746156 84.27458912 C95.82492711 85.9213946 97.47270243 87.56789025 99.12082094 89.21404225 C99.89786882 89.99311436 100.6749167 90.77218647 101.47551149 91.57486683 C102.19353441 92.28973759 102.91155733 93.00460835 103.65133852 93.74114186 C104.59895807 94.68756802 104.59895807 94.68756802 105.56572145 95.6531139 C107.1141874 97.21470569 107.1141874 97.21470569 109.16378969 98.1241985 C109.60070131 98.8657317 110.03761293 99.6072649 110.4877643 100.37126881 C112.34864593 103.42783126 114.44527353 105.6483855 116.98019594 108.1710735 C118.37335024 109.5613274 118.37335024 109.5613274 119.79464906 110.97966725 C120.27571108 111.45452564 120.75677309 111.92938404 121.25241274 112.41863209 C122.73067378 113.87852813 124.20066716 115.34637789 125.66964906 116.81560475 C131.87840094 123.51677436 131.87840094 123.51677436 140.29490846 125.27568775 C141.92500353 125.28820324 141.92500353 125.28820324 143.5880298 125.30097157 C144.78551347 125.30515599 145.98299715 125.3093404 147.21676821 125.31365162 C149.14604529 125.32638146 151.07532238 125.33911156 153.00459939 125.351852 C155.08138034 125.36460907 157.15816092 125.37492463 159.23495859 125.38455921 C163.55786818 125.40475069 167.88070992 125.43240593 172.20356935 125.46123463 C182.15902298 125.52647924 192.11452684 125.58190267 202.07003969 125.63722187 C211.19531854 125.68802157 220.32057276 125.74086574 229.44579065 125.80174738 C233.747371 125.83016072 238.04894313 125.85373317 242.35057074 125.87367207 C244.3793095 125.88381427 246.40801935 125.89619927 248.43673891 125.90961415 C250.91616323 125.92599682 253.39561478 125.93877595 255.87507814 125.94742543 C257.50094347 125.95994091 257.50094347 125.95994091 259.15965456 125.97270924 C260.10742549 125.97786297 261.05519642 125.9830167 262.03168768 125.98832661 C264.16378969 126.1241985 264.16378969 126.1241985 265.16378969 127.1241985 C265.26225936 128.68418898 265.29177587 130.24860394 265.29318422 131.8116985 C265.29633638 132.80943287 265.29948854 133.80716725 265.30273622 134.835136 C265.29969988 136.46322193 265.29969988 136.46322193 265.29660219 138.1241985 C265.29803728 139.78322193 265.29803728 139.78322193 265.29950136 141.475761 C265.30018336 143.81951157 265.29832773 146.16326402 265.29416078 148.507011 C265.28881283 152.10861637 265.29410515 155.71009703 265.30050844 159.3116985 C265.29984766 161.58253211 265.29856651 163.85336564 265.29660219 166.1241985 C265.29862642 167.20958912 265.30065065 168.29497975 265.30273622 169.413261 C265.29958406 170.41099537 265.2964319 171.40872975 265.29318422 172.4366985 C265.29199083 173.76121022 265.29199083 173.76121022 265.29077333 175.11247975 C265.16378969 177.1241985 265.16378969 177.1241985 264.16378969 178.1241985 C259.85641274 178.70859919 255.50881744 178.97622678 251.17624086 179.31682545 C250.49770071 179.37037485 249.81916057 179.42392425 249.1200586 179.47909635 C230.22038935 180.95268562 211.29744873 181.83965228 192.35128969 182.4366985 C191.47719847 182.46514709 190.60310725 182.49359569 189.70252842 182.52290636 C110.92055629 185.01930688 110.92055629 185.01930688 81.99296755 158.67746693 C77.3150356 154.17723222 73.02819033 149.4014585 68.85128969 144.4366985 C67.83581875 143.2323585 67.83581875 143.2323585 66.79983324 142.0036884 C57.69410601 131.05885859 49.71274641 119.5590066 42.49894899 107.29349476 C41.13827233 105.08273923 39.89483413 103.81777998 37.88253969 102.2023235 C31.80436996 97.06482289 26.22986054 91.41322618 20.59738344 85.79802662 C18.64736905 83.85786079 16.68694241 81.92860576 14.72628969 79.9991985 C13.48605292 78.76548003 12.24644592 77.53112808 11.00753969 76.2960735 C10.4201703 75.72105091 9.83280092 75.14602833 9.22763246 74.55358082 C5.16378969 70.46693155 5.16378969 70.46693155 5.16378969 67.1241985 C3.84378969 66.7941985 2.52378969 66.4641985 1.16378969 66.1241985 C1.06066469 65.4848235 0.95753969 64.8454485 0.85128969 64.1866985 C0.62441469 63.5060735 0.39753969 62.8254485 0.16378969 62.1241985 C-0.82621031 61.7941985 -1.81621031 61.4641985 -2.83621031 61.1241985 C-2.85933823 53.31844654 -2.87712769 45.51270255 -2.88802248 37.70692497 C-2.89325033 34.0827389 -2.90034618 30.4585762 -2.91164976 26.83440357 C-2.92248215 23.33959875 -2.92848789 19.84481646 -2.93108755 16.34999615 C-2.93384582 14.36180461 -2.94165719 12.37362218 -2.94950682 10.38544422 C-2.94958235 9.18427464 -2.94965788 7.98310505 -2.9497357 6.74553639 C-2.95195631 5.68186344 -2.95417692 4.6181905 -2.95646483 3.52228504 C-2.78929696 0.18866384 -2.78929696 0.18866384 0 0 Z " fill="#FCFDFE" transform="translate(290.83621031045914,212.8758015036583)"/>
<path d="M0 0 C4 0 4 0 5.57608032 1.46133423 C6.0906076 2.12974335 6.60513489 2.79815247 7.13525391 3.48681641 C10.47415747 7.52974371 14.1064918 10.73121299 18.17098999 14.0274353 C22.01612685 17.17791566 25.71081656 20.48986746 29.41748047 23.80126953 C31.35863193 25.49052318 33.34103802 27.1337256 35.36474609 28.72314453 C43.7443066 35.35794256 46.63252061 40.28642945 53 50 C53.33 66.5 53.66 83 54 100 C160.92 100.495 160.92 100.495 270 101 C270 118.49 270 135.98 270 154 C180.9 154 91.8 154 0 154 C0 103.18 0 52.36 0 0 Z " fill="#FCFEFE" transform="translate(287,357)"/>
<path d="M0 0 C1.32 0 2.64 0 4 0 C5.484375 1.53125 5.484375 1.53125 6.75 3.5 C7.39195312 4.47453125 7.39195312 4.47453125 8.046875 5.46875 C8.36140625 5.9740625 8.6759375 6.479375 9 7 C7.68 7 6.36 7 5 7 C5 6.34 5 5.68 5 5 C4.34 5 3.68 5 3 5 C2.67 53.18 2.34 101.36 2 151 C89.45 151 176.9 151 267 151 C267 135.16 267 119.32 267 103 C260.52777832 103.00523682 254.05555664 103.01047363 247.38720703 103.01586914 C226.05721258 103.03240268 204.72721788 103.04352111 183.3972187 103.05181217 C170.45865681 103.05697481 157.52010097 103.0640169 144.58154297 103.07543945 C133.30810507 103.08538727 122.03467156 103.09185366 110.7612294 103.09408849 C104.78860994 103.09539543 98.81600304 103.09848024 92.8433876 103.10573006 C87.22762846 103.1124918 81.6118871 103.11461664 75.99612427 103.11310768 C73.9296649 103.11338394 71.86320497 103.11538815 69.79674911 103.11920547 C66.9860694 103.12414511 64.17545775 103.12299726 61.36477661 103.12025452 C60.12452073 103.12462378 60.12452073 103.12462378 58.85920918 103.12908131 C53.22824242 103.11412121 53.22824242 103.11412121 51 102 C51 85.17 51 68.34 51 51 C50.34 51 49.68 51 49 51 C49 50.34 49 49.68 49 49 C48.34 49 47.68 49 47 49 C45.3125 46.625 45.3125 46.625 44 44 C44.495 43.01 44.495 43.01 45 42 C53 50 53 50 54 100 C160.92 100.495 160.92 100.495 270 101 C270 118.49 270 135.98 270 154 C180.9 154 91.8 154 0 154 C0 103.18 0 52.36 0 0 Z " fill="#D0D2D4" transform="translate(287,357)"/>
<path d="M0 0 C0.81070291 0.00037972 1.62140581 0.00075944 2.45667547 0.00115067 C3.38873314 -0.00084038 4.3207908 -0.00283143 5.28109264 -0.00488281 C6.83504817 -0.00051355 6.83504817 -0.00051355 8.42039675 0.00394398 C9.51155965 0.00308955 10.60272256 0.00223513 11.726951 0.00135481 C15.41367717 -0.0003032 19.10035867 0.00522663 22.78708071 0.01067311 C25.41773662 0.01095493 28.04839261 0.01079733 30.67904848 0.0102306 C36.35831415 0.00970518 42.03756836 0.01285388 47.71683115 0.01846844 C55.9281828 0.02658097 64.1395289 0.02919841 72.35088413 0.03045643 C85.67190462 0.03264734 98.992919 0.03930848 112.31393617 0.04875904 C125.25729524 0.05793216 138.20065264 0.06501348 151.1440143 0.06926686 C151.94127939 0.06952958 152.73854449 0.0697923 153.55996913 0.07006299 C157.55944551 0.07136799 161.55892191 0.0726317 165.55839831 0.07387489 C198.76019988 0.08424872 231.96199397 0.10186809 265.16378969 0.1241985 C265.18905708 7.369064 265.20662149 14.61391824 265.21872133 21.85881764 C265.22376325 24.32561883 265.23059659 26.79241702 265.23922914 29.25920826 C265.25130094 32.79624378 265.25701925 36.33323995 265.26144594 39.87029225 C265.26660722 40.98069371 265.27176851 42.09109516 265.2770862 43.23514515 C265.27719949 44.76661938 265.27719949 44.76661938 265.27731508 46.32903248 C265.27953569 47.23282139 265.2817563 48.1366103 265.28404421 49.06778675 C265.16378969 51.1241985 265.16378969 51.1241985 264.16378969 52.1241985 C261.57138589 52.22198391 259.00564273 52.25414611 256.41279787 52.24445301 C255.18032519 52.24573465 255.18032519 52.24573465 253.92295408 52.24704218 C251.14831189 52.2486995 248.37372912 52.24317151 245.59909242 52.23772389 C243.61867455 52.23744204 241.63825657 52.23759969 239.65783876 52.23816639 C234.26343284 52.23845448 228.86904895 52.23255598 223.47464818 52.22559243 C217.8438539 52.21936072 212.21305917 52.21875524 206.58226198 52.21756703 C195.91145944 52.21445317 185.24066709 52.20623905 174.56986904 52.19621754 C162.4249755 52.18505808 150.28008149 52.17954637 138.13518411 52.1745221 C113.14471364 52.16405648 88.15425224 52.146456 63.16378969 52.1241985 C68.59843288 58.40166824 68.59843288 58.40166824 74.32321352 64.41301686 C75.4238891 65.51842068 75.4238891 65.51842068 76.54680055 66.64615589 C77.31372728 67.41105839 78.08065401 68.17596089 78.87082094 68.96404225 C80.08072946 70.17538586 80.08072946 70.17538586 81.31508058 71.41120106 C83.00552854 73.10232495 84.69722164 74.79220506 86.39010805 76.48088795 C88.98966449 79.07504552 91.58378644 81.67455275 94.17746156 84.27458912 C95.82492711 85.9213946 97.47270243 87.56789025 99.12082094 89.21404225 C99.89786882 89.99311436 100.6749167 90.77218647 101.47551149 91.57486683 C102.19353441 92.28973759 102.91155733 93.00460835 103.65133852 93.74114186 C104.59895807 94.68756802 104.59895807 94.68756802 105.56572145 95.6531139 C107.1141874 97.21470569 107.1141874 97.21470569 109.16378969 98.1241985 C109.83051698 99.24894581 109.83051698 99.24894581 110.51071352 100.39641529 C112.27231417 103.30327752 114.19672844 105.38488303 116.61300844 107.76872975 C117.46056703 108.60984303 118.30812563 109.45095631 119.18136781 110.31755787 C120.06244203 111.18187428 120.94351625 112.04619068 121.85128969 112.9366985 C122.74396547 113.82035084 123.63664125 114.70400318 124.55636781 115.61443287 C126.75438898 117.78894579 128.95694899 119.95864277 131.16378969 122.1241985 C128.16378969 122.1241985 128.16378969 122.1241985 126.14816469 120.366386 C125.41082094 119.58521412 124.67347719 118.80404225 123.91378969 117.9991985 C117.65990937 111.27271779 117.65990937 111.27271779 110.16378969 106.1241985 C110.16378969 105.1341985 110.16378969 104.1441985 110.16378969 103.1241985 C109.50378969 103.1241985 108.84378969 103.1241985 108.16378969 103.1241985 C108.16378969 102.4641985 108.16378969 101.8041985 108.16378969 101.1241985 C107.50378969 101.1241985 106.84378969 101.1241985 106.16378969 101.1241985 C105.14449233 99.46926325 104.14787799 97.80030947 103.16378969 96.1241985 C101.88826615 94.67443157 100.56281101 93.26755381 99.19894594 91.90056568 C98.01256532 90.70472859 98.01256532 90.70472859 96.80221742 89.48473316 C95.95216127 88.63872547 95.10210512 87.79271778 94.22628969 86.9210735 C93.34980776 86.04267811 92.47332582 85.16428272 91.57028383 84.2592693 C89.24733011 81.9346095 86.91957719 79.61488361 84.59018129 77.29668385 C83.16205678 75.87247033 81.73790335 74.44440834 80.31515688 73.0148235 C77.58251915 70.26986378 74.84308496 67.53188314 72.10128969 64.7960735 C71.25123354 63.94196888 70.40117738 63.08786427 69.52536196 62.2078777 C68.33898134 61.03095356 68.33898134 61.03095356 67.12863344 59.83025318 C66.43374819 59.13695912 65.73886293 58.44366505 65.02292055 57.72936207 C63.15322053 55.90921892 63.15322053 55.90921892 60.16378969 55.1241985 C60.49378969 53.4741985 60.82378969 51.8241985 61.16378969 50.1241985 C127.82378969 50.1241985 194.48378969 50.1241985 263.16378969 50.1241985 C263.16378969 34.2841985 263.16378969 18.4441985 263.16378969 2.1241985 C175.71378969 2.1241985 88.26378969 2.1241985 -1.83621031 2.1241985 C-1.83621031 21.5941985 -1.83621031 41.0641985 -1.83621031 61.1241985 C-2.16621031 61.1241985 -2.49621031 61.1241985 -2.83621031 61.1241985 C-2.85933823 53.31844654 -2.87712769 45.51270255 -2.88802248 37.70692497 C-2.89325033 34.0827389 -2.90034618 30.4585762 -2.91164976 26.83440357 C-2.92248215 23.33959875 -2.92848789 19.84481646 -2.93108755 16.34999615 C-2.93384582 14.36180461 -2.94165719 12.37362218 -2.94950682 10.38544422 C-2.94958235 9.18427464 -2.94965788 7.98310505 -2.9497357 6.74553639 C-2.95195631 5.68186344 -2.95417692 4.6181905 -2.95646483 3.52228504 C-2.78929696 0.18866384 -2.78929696 0.18866384 0 0 Z " fill="#CED0D2" transform="translate(290.83621031045914,212.8758015036583)"/>
<path d="M0 0 C34.37938114 -0.02286533 68.75876055 -0.04049769 103.13814765 -0.05106533 C107.192603 -0.05231611 111.24705834 -0.05361042 115.30151367 -0.05493164 C116.10871735 -0.05519395 116.91592103 -0.05545626 117.74758542 -0.05572652 C130.83516173 -0.06008343 143.92273366 -0.06797109 157.01030736 -0.0771528 C170.42920917 -0.08648877 183.84810869 -0.09205549 197.26701361 -0.09408849 C205.55396531 -0.09546384 213.84090466 -0.09981505 222.12785257 -0.10791647 C227.80268385 -0.11318323 233.4775087 -0.11480446 239.15234225 -0.11350138 C242.43138232 -0.11285789 245.71039602 -0.11441518 248.98943329 -0.11920547 C252.53614031 -0.12413537 256.08279323 -0.1230009 259.62950134 -0.12025452 C260.67714454 -0.12316736 261.72478774 -0.1260802 262.8041777 -0.12908131 C264.21793948 -0.12609474 264.21793948 -0.12609474 265.66026211 -0.12304783 C266.4800783 -0.12342755 267.29989449 -0.12380727 268.1445536 -0.1241985 C270 0 270 0 271 1 C271.09868509 2.65191396 271.12798837 4.30803217 271.12939453 5.96289062 C271.13254669 7.02068726 271.13569885 8.07848389 271.13894653 9.16833496 C271.13591019 10.89485291 271.13591019 10.89485291 271.1328125 12.65625 C271.13424759 14.41515564 271.13424759 14.41515564 271.13571167 16.20959473 C271.1363937 18.69458062 271.13453784 21.17956829 271.13037109 23.66455078 C271.12502319 27.48343887 271.13031536 31.30220935 271.13671875 35.12109375 C271.13605797 37.52864609 271.13477682 39.93619837 271.1328125 42.34375 C271.13483673 43.49476196 271.13686096 44.64577393 271.13894653 45.83166504 C271.13579437 46.88946167 271.13264221 47.9472583 271.12939453 49.03710938 C271.12820114 50.44156311 271.12820114 50.44156311 271.12698364 51.87438965 C271 54 271 54 270 55 C267.38237266 55.09780042 264.79114693 55.12994511 262.17308044 55.12025452 C261.34326489 55.12110894 260.51344934 55.12196337 259.65848786 55.12284368 C256.85620681 55.12450103 254.05398459 55.11897297 251.25170898 55.11352539 C249.25158693 55.11324355 247.25146477 55.1134012 245.25134277 55.1139679 C239.80321965 55.11425598 234.35511834 55.10835745 228.9070003 55.10139394 C223.22015158 55.09516226 217.53330242 55.09455675 211.84645081 55.09336853 C201.06940041 55.09025466 190.2923601 55.08204053 179.51531416 55.07201904 C167.24950393 55.06085962 154.98369322 55.05534789 142.71787918 55.05032361 C117.47858051 55.03985796 92.23929082 55.02225745 67 55 C67 54.67 67 54.34 67 54 C133.33 53.67 199.66 53.34 268 53 C268.33 36.17 268.66 19.34 269 2 C180.89 2.33 92.78 2.66 2 3 C2 22.8 2 42.6 2 63 C2.66 63.33 3.32 63.66 4 64 C4.625 66.0625 4.625 66.0625 5 68 C4.34 68 3.68 68 3 68 C3 67.34 3 66.68 3 66 C2.01 65.67 1.02 65.34 0 65 C-1.34649577 62.30700846 -1.12715928 60.22023961 -1.12939453 57.20507812 C-1.13254669 55.9904187 -1.13569885 54.77575928 -1.13894653 53.52429199 C-1.1369223 52.20658813 -1.13489807 50.88888428 -1.1328125 49.53125 C-1.13348588 48.17126447 -1.13445619 46.81127906 -1.13571167 45.45129395 C-1.13718703 42.59984187 -1.13503928 39.7484211 -1.13037109 36.89697266 C-1.12467389 33.23824827 -1.12795376 29.57959724 -1.13394356 25.92087555 C-1.13755354 23.11223801 -1.13640857 20.30361792 -1.13381577 17.49497986 C-1.13282231 15.48855543 -1.13586431 13.48213032 -1.13894653 11.47570801 C-1.13579437 10.26104858 -1.13264221 9.04638916 -1.12939453 7.79492188 C-1.12859894 6.72173706 -1.12780334 5.64855225 -1.12698364 4.54284668 C-1 2 -1 2 0 0 Z " fill="#424446" transform="translate(287,211)"/>
<path d="M0 0 C1.32 0 2.64 0 4 0 C4.33 0.99 4.66 1.98 5 3 C4.34 3 3.68 3 3 3 C3 2.34 3 1.68 3 1 C2.34 1 1.68 1 1 1 C1.33 50.83 1.66 100.66 2 152 C89.78 152.33 177.56 152.66 268 153 C268 136.17 268 119.34 268 102 C196.39 102 124.78 102 51 102 C51 85.17 51 68.34 51 51 C50.34 51 49.68 51 49 51 C49 50.34 49 49.68 49 49 C48.34 49 47.68 49 47 49 C45.3125 46.625 45.3125 46.625 44 44 C44.495 43.01 44.495 43.01 45 42 C53 50 53 50 54 100 C160.92 100.495 160.92 100.495 270 101 C270 118.49 270 135.98 270 154 C180.9 154 91.8 154 0 154 C0 103.18 0 52.36 0 0 Z " fill="#848688" transform="translate(287,357)"/>
<path d="M0 0 C17.02845706 -0.04669045 34.05689419 -0.08197432 51.08540058 -0.10362434 C58.99176992 -0.11394336 66.89809952 -0.1280156 74.80444336 -0.15087891 C81.69443497 -0.17079369 88.5843978 -0.18371189 95.47441739 -0.18817699 C99.1236958 -0.19078762 102.77289188 -0.19693664 106.42214394 -0.21146011 C110.49281108 -0.22752982 114.56333446 -0.22798092 118.6340332 -0.22705078 C119.84819412 -0.23424133 121.06235504 -0.24143188 122.31330872 -0.24884033 C123.41968689 -0.246091 124.52606506 -0.24334167 125.66596985 -0.24050903 C126.62924352 -0.24235262 127.59251719 -0.24419621 128.58498096 -0.24609566 C131 0 131 0 134 2 C134.36749268 4.24586487 134.36749268 4.24586487 134.35644531 7.07641602 C134.36094696 8.66299767 134.36094696 8.66299767 134.36553955 10.28163147 C134.34701935 12.00040749 134.34701935 12.00040749 134.328125 13.75390625 C134.32625183 14.92509506 134.32437866 16.09628387 134.32244873 17.30296326 C134.31571718 19.78200115 134.30178103 22.26102822 134.28125 24.73999023 C134.25010164 28.55006696 134.24028189 32.35973048 134.234375 36.16992188 C134.22520535 38.57292175 134.2148297 40.97591739 134.203125 43.37890625 C134.19887512 44.52678116 134.19462524 45.67465607 134.19024658 46.85731506 C134.18063904 47.911884 134.17103149 48.96645294 134.16113281 50.05297852 C134.15089081 51.45290794 134.15089081 51.45290794 134.14044189 52.88111877 C134 55 134 55 133 56 C131.05687809 56.13826957 129.10875262 56.20642827 127.16116333 56.24810791 C125.89146698 56.27694061 124.62177063 56.30577332 123.31359863 56.33547974 C121.89282693 56.36224849 120.47205036 56.38875949 119.05126953 56.41503906 C117.56472423 56.44584329 116.07818255 56.47682275 114.59164429 56.50796509 C100.9507704 56.78320303 87.30795979 56.94053136 73.66497993 57.06656265 C64.4996415 57.15320808 55.33766713 57.27527273 46.17431641 57.48828125 C38.1754958 57.67419254 30.1790322 57.79139324 22.17808616 57.82835174 C17.94876182 57.85009341 13.72580738 57.90370216 9.49847794 58.03943634 C-19.54558144 58.93427187 -19.54558144 58.93427187 -29.95451546 49.31414413 C-32.98809238 46.07325199 -35.75834246 42.72663837 -38.38928604 39.15239716 C-40.38996807 36.47888565 -42.57077682 34.28430301 -45 32 C-47.5 29.5 -47.5 29.5 -50 27 C-49.67 26.34 -49.34 25.68 -49 25 C-48.55895935 25.8390387 -48.1179187 26.67807739 -47.66351318 27.5425415 C-41.46002217 38.53968231 -32.91116354 48.21711415 -21 53 C-9.25447048 55.8209087 2.96594313 55.76044539 14.984375 55.734375 C16.23048648 55.73167193 16.23048648 55.73167193 17.50177193 55.72891426 C27.91253322 55.68231776 38.31129415 55.39033172 48.71482706 55.01674509 C57.70032309 54.69984426 66.68650076 54.54884488 75.67621946 54.40906096 C94.12510415 54.11860966 112.55861579 53.60658063 131 53 C131 36.5 131 20 131 3 C125.154021 2.970271 125.154021 2.970271 119.18994141 2.93994141 C106.3415975 2.87316198 93.49333769 2.79562195 80.6450901 2.71247292 C72.85195513 2.66230339 65.05883091 2.61586109 57.265625 2.578125 C50.47483501 2.54523341 43.68412739 2.5054181 36.89342821 2.45720994 C33.29620033 2.43191659 29.69902729 2.41014385 26.10173416 2.39665604 C22.09065111 2.38148724 18.07983159 2.35086414 14.06884766 2.31884766 C12.27026558 2.31560738 12.27026558 2.31560738 10.43534851 2.31230164 C9.34717331 2.30113815 8.25899811 2.28997467 7.1378479 2.2784729 C5.71367774 2.27017676 5.71367774 2.27017676 4.26073647 2.26171303 C2 2 2 2 0 0 Z " fill="#4E4F50" transform="translate(424,337)"/>
<path d="M0 0 C1.2065625 0.0309375 1.2065625 0.0309375 2.4375 0.0625 C2.4375 1.0525 2.4375 2.0425 2.4375 3.0625 C1.1175 3.0625 -0.2025 3.0625 -1.5625 3.0625 C-1.5625 53.8825 -1.5625 104.7025 -1.5625 157.0625 C86.8775 157.0625 175.3175 157.0625 266.4375 157.0625 C266.4375 157.3925 266.4375 157.7225 266.4375 158.0625 C177.6675 158.0625 88.8975 158.0625 -2.5625 158.0625 C-3.94856355 155.29037289 -3.6884572 153.04760277 -3.68948364 149.94432068 C-3.69230347 148.63882263 -3.69512329 147.33332458 -3.69802856 145.98826599 C-3.69608409 144.53311143 -3.69403591 143.07795701 -3.69189453 141.62280273 C-3.69324889 140.09705565 -3.69502902 138.57130888 -3.69720459 137.04556274 C-3.70177441 132.89491184 -3.69999131 128.74428572 -3.6968255 124.59363437 C-3.69430005 120.25790256 -3.69663992 115.92217293 -3.69821167 111.58644104 C-3.70003262 104.3054262 -3.69762879 97.0244215 -3.69287109 89.7434082 C-3.68742657 81.3137056 -3.68919281 72.88402716 -3.6946975 64.45432514 C-3.6992283 57.22799994 -3.6998794 50.00168204 -3.69725883 42.77535588 C-3.69569614 38.45438907 -3.69550212 34.13343365 -3.69879532 29.81246758 C-3.70167362 25.75204836 -3.6996991 21.69166047 -3.69390106 17.63124466 C-3.69257333 16.13682291 -3.6929678 14.64239855 -3.69516373 13.14797783 C-3.69787464 11.11655137 -3.69388094 9.08511919 -3.68948364 7.05369568 C-3.68910662 5.91419181 -3.68872959 4.77468794 -3.68834114 3.60065365 C-3.51813252 0.16762982 -3.44242582 0.08396161 0 0 Z " fill="#3A3C3D" transform="translate(288.5625,353.9375)"/>
<path d="M0 0 C0.82381526 0.48659293 0.82381526 0.48659293 1.66427326 0.98301601 C4.41104067 2.17896861 6.38019514 2.25836588 9.37162781 2.27174377 C10.46110718 2.2814621 11.55058655 2.29118042 12.67308044 2.30119324 C13.86337357 2.30178238 15.05366669 2.30237152 16.2800293 2.30297852 C18.16581192 2.31563751 18.16581192 2.31563751 20.08969116 2.32855225 C22.82067609 2.34681141 25.5515928 2.35886217 28.28262901 2.36609077 C32.59733394 2.37757846 36.91188749 2.4030332 41.22651672 2.43040466 C48.04628285 2.47203188 54.86605623 2.50446049 61.68588907 2.53287882 C73.9117633 2.58390115 86.13757503 2.64589594 98.36334163 2.71821922 C102.65656471 2.74319017 106.94976754 2.76259908 111.24303663 2.77760136 C114.53142802 2.79015942 117.8197864 2.80885167 121.1081543 2.82641602 C122.30452011 2.82902939 123.50088593 2.83164276 124.73350525 2.83433533 C125.81452515 2.84123383 126.89554504 2.84813232 128.00932312 2.85523987 C128.95449641 2.85909478 129.8996697 2.8629497 130.87348461 2.86692142 C133 3 133 3 134 4 C134.09846967 5.55999048 134.12798618 7.12440544 134.12939453 8.6875 C134.13254669 9.68523437 134.13569885 10.68296875 134.13894653 11.7109375 C134.13591019 13.33902344 134.13591019 13.33902344 134.1328125 15 C134.13376923 16.10601562 134.13472595 17.21203125 134.13571167 18.3515625 C134.13639367 20.69531308 134.13453804 23.03906553 134.13037109 25.3828125 C134.12502314 28.98441788 134.13031547 32.58589853 134.13671875 36.1875 C134.13605797 38.45833361 134.13477682 40.72916714 134.1328125 43 C134.13483673 44.08539063 134.13686096 45.17078125 134.13894653 46.2890625 C134.13421829 47.78566406 134.13421829 47.78566406 134.12939453 49.3125 C134.12859894 50.19550781 134.12780334 51.07851563 134.12698364 51.98828125 C134 54 134 54 133 55 C131.03838396 55.09666937 129.07323355 55.12187097 127.10923767 55.12025452 C125.18874855 55.12231651 125.18874855 55.12231651 123.22946167 55.12442017 C121.79742409 55.12088055 120.36538674 55.11724573 118.93334961 55.11352539 C117.43568422 55.11324353 115.9380187 55.11340124 114.44035339 55.1139679 C110.36201828 55.11425591 106.28371233 55.10835864 102.20538402 55.10139394 C97.94792372 55.09516095 93.69046282 55.09455665 89.43299866 55.09336853 C81.36526813 55.09025505 73.29755109 55.08204144 65.22982651 55.07201904 C56.04739221 55.06085842 46.86495728 55.05534758 37.68251789 55.05032361 C18.7883376 55.03985884 -0.10583012 55.02225907 -19 55 C-19.33 54.34 -19.66 53.68 -20 53 C30.16 53 80.32 53 132 53 C132 36.83 132 20.66 132 4 C88.77 4 45.54 4 1 4 C0.67 2.68 0.34 1.36 0 0 Z " fill="#B8B9BA" transform="translate(422,336)"/>
<path d="M0 0 C2.475 0.99 2.475 0.99 5 2 C5 18.5 5 35 5 52 C75.95 52 146.9 52 220 52 C217.41452368 54.58547632 215.66841365 54.24118861 212.14545292 54.26282471 C211.31929778 54.25768115 210.49314265 54.25253759 209.64195251 54.24723816 C208.32962728 54.25085978 208.32962728 54.25085978 206.99079043 54.25455457 C204.04188141 54.26021691 201.09318659 54.25150941 198.14428711 54.24291992 C196.03726645 54.24399217 193.93024608 54.24592999 191.82322693 54.24867249 C186.08789499 54.25353286 180.35264049 54.24585053 174.61731791 54.23571944 C168.62798187 54.22695945 162.6386484 54.22869598 156.64930725 54.2290802 C146.59065448 54.22814269 136.53203182 54.21944671 126.47338867 54.20581055 C114.82632373 54.19007985 103.17929177 54.18481254 91.53221697 54.1855461 C80.34945652 54.18615542 69.16670687 54.18105905 57.98394966 54.17275429 C53.21480793 54.169214 48.44567001 54.16738998 43.67652702 54.16686058 C38.06648224 54.1658596 32.4564654 54.15978319 26.84642982 54.14969444 C24.781164 54.14676162 22.71589496 54.14554564 20.65062714 54.14612198 C17.84407586 54.146609 15.0376041 54.14099343 12.23106384 54.13371277 C10.98848506 54.13603567 10.98848506 54.13603567 9.72080368 54.1384055 C4.11417854 54.11417854 4.11417854 54.11417854 3 53 C2.88779004 51.45106026 2.8432592 49.89714578 2.82641602 48.34423828 C2.81292618 47.35295929 2.79943634 46.3616803 2.78553772 45.34036255 C2.77509933 44.26124603 2.76466095 43.18212952 2.75390625 42.0703125 C2.72096894 39.80858986 2.68775728 37.54687121 2.65429688 35.28515625 C2.60683755 31.70136252 2.56241884 28.11758508 2.52319336 24.53369141 C2.48356162 21.08739087 2.43199335 17.64142828 2.37890625 14.1953125 C2.3704921 13.12024445 2.36207794 12.04517639 2.35340881 10.93753052 C2.33676682 9.9399472 2.32012482 8.94236389 2.30297852 7.91455078 C2.29267105 7.03598419 2.28236359 6.1574176 2.27174377 5.25222778 C2.13774576 2.71799465 2.13774576 2.71799465 0 0 Z " fill="#363839" transform="translate(337,404)"/>
<path d="M0 0 C0.66 0 1.32 0 2 0 C2 0.66 2 1.32 2 2 C2.928125 2.1546875 2.928125 2.1546875 3.875 2.3125 C6 3 6 3 8 6 C6.68 6 5.36 6 4 6 C4 5.34 4 4.68 4 4 C3.34 4 2.68 4 2 4 C1.67 52.18 1.34 100.36 1 150 C88.45 150 175.9 150 266 150 C266 150.33 266 150.66 266 151 C178.22 151 90.44 151 0 151 C0 101.17 0 51.34 0 0 Z " fill="#EBEDEE" transform="translate(288,358)"/>
<path d="M0 0 C66 0 132 0 200 0 C199.67 0.66 199.34 1.32 199 2 C197.55079556 1.99723462 197.55079556 1.99723462 196.07231426 1.99441338 C172.58787471 1.95005748 149.10344057 1.91716903 125.61896801 1.89637566 C114.26215821 1.88605344 102.90537605 1.87197507 91.54858398 1.84912109 C81.65254283 1.82921613 71.75652168 1.81629045 61.86046106 1.81182301 C56.61829007 1.80921072 51.37617634 1.80305112 46.13402367 1.78853989 C41.20359251 1.77500167 36.27324239 1.77076972 31.34279442 1.77378464 C29.5299231 1.77323279 27.71704917 1.76923302 25.90419388 1.76158905 C23.43535206 1.75168658 20.96681906 1.75401382 18.49797058 1.75949097 C17.77521083 1.75366528 17.05245107 1.7478396 16.3077895 1.74183738 C12.64024448 1.76393693 11.14118498 1.90587668 8 4 C7.01 5.485 7.01 5.485 6 7 C4.02 4.69 2.04 2.38 0 0 Z " fill="#121416" transform="translate(354,266)"/>
<path d="M0 0 C1.220611 0.00056958 1.220611 0.00056958 2.46588081 0.00115067 C3.40142187 -0.00084038 4.33696294 -0.00283143 5.30085373 -0.00488281 C6.34071503 -0.00196997 7.38057633 0.00094287 8.45194858 0.00394398 C9.54719504 0.00308955 10.6424415 0.00223513 11.77087724 0.00135481 C15.47142289 -0.00030321 19.17192403 0.00522664 22.87246555 0.01067311 C25.51297461 0.01095493 28.15348088 0.01084145 30.7939896 0.0102306 C36.49453617 0.00970518 42.19507134 0.01285389 47.89561504 0.01846844 C56.13773579 0.02658096 64.37985099 0.0291984 72.6219753 0.03045643 C85.99291007 0.03264734 99.36383877 0.03930849 112.73477024 0.04875904 C125.72663191 0.05793215 138.71849192 0.06501348 151.71035618 0.06926686 C152.51060827 0.06952958 153.31086036 0.0697923 154.13536251 0.07006299 C158.14982296 0.07136799 162.16428343 0.0726317 166.1787439 0.07387489 C199.50495957 0.08424872 232.83116787 0.1018681 266.15737766 0.1241985 C266.15737766 0.4541985 266.15737766 0.7841985 266.15737766 1.1241985 C178.37737766 1.4541985 90.59737766 1.7841985 0.15737766 2.1241985 C0.15737766 21.9241985 0.15737766 41.7241985 0.15737766 62.1241985 C0.81737766 62.4541985 1.47737766 62.7841985 2.15737766 63.1241985 C2.78237766 65.1866985 2.78237766 65.1866985 3.15737766 67.1241985 C2.49737766 67.1241985 1.83737766 67.1241985 1.15737766 67.1241985 C1.15737766 66.4641985 1.15737766 65.8041985 1.15737766 65.1241985 C0.16737766 64.7941985 -0.82262234 64.4641985 -1.84262234 64.1241985 C-3.19100617 61.42743083 -2.96978481 59.3327207 -2.97201687 56.31340748 C-2.97516903 55.09552037 -2.97832119 53.87763325 -2.98156887 52.62284046 C-2.97977923 51.28865736 -2.97772831 49.95447458 -2.97543484 48.62029225 C-2.97610815 47.25791109 -2.9770784 45.89553005 -2.97833401 44.5331493 C-2.9798092 41.67750107 -2.97766182 38.82188411 -2.97299343 35.96623951 C-2.96729083 32.29844864 -2.97057961 28.63073086 -2.9765659 24.96294266 C-2.98017172 22.1500565 -2.97903293 19.33718779 -2.97643811 16.52430111 C-2.97576917 15.17145043 -2.97659609 13.81859818 -2.97891766 12.46574932 C-2.98144507 10.5790315 -2.97691277 8.69230814 -2.97201687 6.80559498 C-2.97122128 5.73018955 -2.97042568 4.65478413 -2.96960598 3.54679066 C-2.79356562 0.18829504 -2.79356562 0.18829504 0 0 Z " fill="#67696B" transform="translate(288.8426223397255,211.8758015036583)"/>
<path d="M0 0 C1.12588014 0.95729916 2.2506715 1.91587895 3.375 2.875 C4.00148438 3.40867187 4.62796875 3.94234375 5.2734375 4.4921875 C6.55836651 5.61432007 7.79371975 6.79371975 9 8 C9.33 24.5 9.66 41 10 58 C80.95 58.33 151.9 58.66 225 59 C225 76.16 225 93.32 225 111 C224.67 111 224.34 111 224 111 C224 94.17 224 77.34 224 60 C152.39 60 80.78 60 7 60 C7 43.17 7 26.34 7 9 C6.34 9 5.68 9 5 9 C5 8.34 5 7.68 5 7 C4.34 7 3.68 7 3 7 C0 2.61538462 0 2.61538462 0 0 Z " fill="#A8AAAB" transform="translate(331,399)"/>
<path d="M0 0 C66.66 0 133.32 0 202 0 C202 0.33 202 0.66 202 1 C135.67 1 69.34 1 1 1 C6.46098604 7.28786003 6.46098604 7.28786003 12.15942383 13.28881836 C12.89320755 14.02575424 13.62699127 14.76269012 14.38301086 15.5219574 C15.14993759 16.28685989 15.91686432 17.05176239 16.70703125 17.83984375 C17.51363693 18.64740616 18.32024261 19.45496857 19.15129089 20.28700256 C20.84173886 21.97812645 22.53343195 23.66800656 24.22631836 25.35668945 C26.8258748 27.95084702 29.41999675 30.55035425 32.01367188 33.15039062 C33.66113742 34.79719611 35.30891274 36.44369176 36.95703125 38.08984375 C37.73407913 38.86891586 38.51112701 39.64798798 39.3117218 40.45066833 C40.02974472 41.16553909 40.74776764 41.88040985 41.48754883 42.61694336 C42.1192952 43.24789413 42.75104156 43.87884491 43.40193176 44.52891541 C44.95039771 46.0905072 44.95039771 46.0905072 47 47 C47.44448486 47.74983154 47.88896973 48.49966309 48.34692383 49.2722168 C50.10852448 52.17907902 52.03293875 54.26068454 54.44921875 56.64453125 C55.29677734 57.48564453 56.14433594 58.32675781 57.01757812 59.19335938 C57.89865234 60.05767578 58.77972656 60.92199219 59.6875 61.8125 C61.02651367 63.13797852 61.02651367 63.13797852 62.39257812 64.49023438 C64.59059929 66.66474729 66.7931593 68.83444427 69 71 C66 71 66 71 63.984375 69.2421875 C63.24703125 68.46101563 62.5096875 67.67984375 61.75 66.875 C55.49611968 60.14851929 55.49611968 60.14851929 48 55 C48 54.01 48 53.02 48 52 C47.34 52 46.68 52 46 52 C46 51.34 46 50.68 46 50 C45.34 50 44.68 50 44 50 C42.98436406 48.34281521 41.98728414 46.67423051 41 45 C39.64850589 43.48226259 38.2452987 42.0095912 36.80395508 40.5769043 C35.54298759 39.31616341 35.54298759 39.31616341 34.25654602 38.029953 C33.35333115 37.1370607 32.45011627 36.2441684 31.51953125 35.32421875 C30.59154221 34.3990596 29.66355316 33.47390045 28.70744324 32.52070618 C26.25083425 30.07170115 23.78827707 27.6287644 21.32440186 25.18707275 C18.80702512 22.69022447 16.29536272 20.18764229 13.78320312 17.68554688 C8.86102391 12.78476037 3.93253245 7.89036547 -1 3 C-0.67 2.01 -0.34 1.02 0 0 Z " fill="#AFB1B2" transform="translate(353,264)"/>
<path d="M0 0 C0.66 0 1.32 0 2 0 C2 0.66 2 1.32 2 2 C2.928125 2.1546875 2.928125 2.1546875 3.875 2.3125 C6 3 6 3 8 6 C6.68 6 5.36 6 4 6 C4 5.34 4 4.68 4 4 C3.34 4 2.68 4 2 4 C1.67 52.51 1.34 101.02 1 151 C0.67 151 0.34 151 0 151 C0 101.17 0 51.34 0 0 Z " fill="#D2D3D3" transform="translate(288,358)"/>
<path d="M0 0 C5.61971784 4.6721395 10.78711096 9.67055112 15.92578125 14.86328125 C16.75458298 15.6958696 17.5833847 16.52845795 18.43730164 17.38627625 C21.06481308 20.02593281 23.6890457 22.66881155 26.3125 25.3125 C29.78491914 28.81143339 33.26057996 32.30709883 36.73828125 35.80078125 C37.53720291 36.60800125 38.33612457 37.41522125 39.15925598 38.24690247 C39.89729965 38.98824936 40.63534332 39.72959625 41.39575195 40.4934082 C42.04526321 41.14815628 42.69477448 41.80290436 43.3639679 42.47749329 C44.93966441 44.08731045 44.93966441 44.08731045 47 45 C47.44448486 45.74983154 47.88896973 46.49966309 48.34692383 47.2722168 C50.10852448 50.17907902 52.03293875 52.26068454 54.44921875 54.64453125 C55.29677734 55.48564453 56.14433594 56.32675781 57.01757812 57.19335938 C57.89865234 58.05767578 58.77972656 58.92199219 59.6875 59.8125 C61.02651367 61.13797852 61.02651367 61.13797852 62.39257812 62.49023438 C64.59059929 64.66474729 66.7931593 66.83444427 69 69 C66 69 66 69 63.984375 67.2421875 C63.24703125 66.46101563 62.5096875 65.67984375 61.75 64.875 C55.49611968 58.14851929 55.49611968 58.14851929 48 53 C48 52.01 48 51.02 48 50 C47.34 50 46.68 50 46 50 C46 49.34 46 48.68 46 48 C45.34 48 44.68 48 44 48 C42.98382141 46.34314791 41.98675262 44.67454383 41 43 C39.67936775 41.52297419 38.30696763 40.0911749 36.89575195 38.70043945 C36.07512772 37.88642166 35.25450348 37.07240387 34.40901184 36.23371887 C33.52767075 35.36897446 32.64632965 34.50423004 31.73828125 33.61328125 C30.83248825 32.71506149 29.92669525 31.81684174 28.99345398 30.8914032 C26.10455505 28.02691641 23.20951605 25.16877039 20.3125 22.3125 C16.4901604 18.54370781 12.67489711 14.76792728 8.86328125 10.98828125 C7.97586746 10.11746414 7.08845367 9.24664703 6.17414856 8.34944153 C5.3629808 7.54488022 4.55181305 6.74031891 3.71606445 5.91137695 C2.99675247 5.2025386 2.27744049 4.49370026 1.53633118 3.76338196 C0 2 0 2 0 0 Z " fill="#7C7E80" transform="translate(353,266)"/>
<path d="M0 0 C0.99 0.33 1.98 0.66 3 1 C3 20.8 3 40.6 3 61 C3.66 61.33 4.32 61.66 5 62 C5.625 64.0625 5.625 64.0625 6 66 C5.34 66 4.68 66 4 66 C4 65.34 4 64.68 4 64 C3.01 63.67 2.02 63.34 1 63 C-0.35144654 60.29710692 -0.11975165 58.19930194 -0.11352539 55.17333984 C-0.11341209 53.34166763 -0.11341209 53.34166763 -0.11329651 51.47299194 C-0.10818952 50.13564005 -0.10297352 48.79828857 -0.09765625 47.4609375 C-0.0957914 46.09616141 -0.09436781 44.73138466 -0.09336853 43.36660767 C-0.08954863 39.77284907 -0.07972283 36.17913083 -0.06866455 32.58538818 C-0.05843911 28.91891018 -0.05386848 25.25242565 -0.04882812 21.5859375 C-0.0381001 14.39060659 -0.02102999 7.19530895 0 0 Z " fill="#828486" transform="translate(286,213)"/>
<path d="M0 0 C1.8125 0.1875 1.8125 0.1875 4 1 C4.39783691 1.69472412 4.79567383 2.38944824 5.20556641 3.10522461 C7.61188403 6.98708965 10.66242506 9.92883719 13.8984375 13.12890625 C14.57041168 13.80042221 15.24238586 14.47193817 15.9347229 15.1638031 C17.35287767 16.5789449 18.773454 17.99166363 20.19628906 19.40209961 C22.36579545 21.55337281 24.52721595 23.71251689 26.6875 25.87304688 C28.06984215 27.25047219 29.45263968 28.62744068 30.8359375 30.00390625 C31.47880707 30.64566299 32.12167664 31.28741974 32.7840271 31.94862366 C36.05601154 35.18641981 39.39976027 38.12506225 43 41 C44.00648061 42.66276112 45.0058107 44.32986066 46 46 C47.96245824 48.20749994 50.06738635 50.25731327 52.1875 52.3125 C52.74630859 52.86228516 53.30511719 53.41207031 53.88085938 53.97851562 C55.24937412 55.32363696 56.62406833 56.66246643 58 58 C57.01 58.33 56.02 58.66 55 59 C54.59910156 58.52691406 54.19820313 58.05382812 53.78515625 57.56640625 C46.3187028 48.1592349 46.3187028 48.1592349 37 41 C36.61416748 40.30737061 36.22833496 39.61474121 35.83081055 38.90112305 C33.30744031 34.90256211 30.07946686 31.87269461 26.70703125 28.58203125 C26.00100266 27.8835759 25.29497406 27.18512054 24.56755066 26.46549988 C22.32062866 24.24294503 20.06737888 22.02698007 17.8125 19.8125 C14.83418736 16.88717439 11.86240631 13.95544134 8.89453125 11.01953125 C8.20398148 10.34557816 7.5134317 9.67162506 6.80195618 8.97724915 C6.17097519 8.3528746 5.5399942 7.72850006 4.88989258 7.08520508 C4.05075066 6.26177361 4.05075066 6.26177361 3.19465637 5.42170715 C2 4 2 4 2 2 C1.34 2 0.68 2 0 2 C0 1.34 0 0.68 0 0 Z " fill="#747678" transform="translate(292,279)"/>
<path d="M0 0 C6.18134869 5.10448822 11.79822878 10.68294942 17.4375 16.375 C18.35982422 17.30183594 19.28214844 18.22867187 20.23242188 19.18359375 C22.49058625 21.45345846 24.74636942 23.72563538 27 26 C23.89448334 26 22.64738916 25.4606285 20 24 C20 23.34 20 22.68 20 22 C19.34 22 18.68 22 18 22 C18 21.34 18 20.68 18 20 C17.34 20 16.68 20 16 20 C16 19.34 16 18.68 16 18 C15.34 18 14.68 18 14 18 C13.731875 17.360625 13.46375 16.72125 13.1875 16.0625 C12.11332248 13.66868314 12.11332248 13.66868314 9 13 C9 12.34 9 11.68 9 11 C8.34 11 7.68 11 7 11 C7 10.34 7 9.68 7 9 C6.34 9 5.68 9 5 9 C5 8.34 5 7.68 5 7 C4.34 7 3.68 7 3 7 C3 6.34 3 5.68 3 5 C2.01 4.67 1.02 4.34 0 4 C0 2.68 0 1.36 0 0 Z " fill="#ADAFB1" transform="translate(296,364)"/>
<path d="M0 0 C1.12588014 0.95729916 2.2506715 1.91587895 3.375 2.875 C4.00148438 3.40867187 4.62796875 3.94234375 5.2734375 4.4921875 C8.96350443 7.71473464 8.96350443 7.71473464 9.2784729 10.17666626 C9.29179657 11.07823456 9.30512024 11.97980286 9.31884766 12.90869141 C9.33871735 13.92959869 9.35858704 14.95050598 9.37905884 16.00234985 C9.39061005 17.10759003 9.40216125 18.2128302 9.4140625 19.3515625 C9.43342865 20.4807309 9.4527948 21.60989929 9.4727478 22.77328491 C9.53267069 26.39044572 9.57898002 30.00763813 9.625 33.625 C9.66316805 36.07293078 9.70221908 38.52084796 9.7421875 40.96875 C9.83838259 46.97904624 9.92339265 52.98942393 10 59 C9.34 59 8.68 59 8 59 C8 42.5 8 26 8 9 C7.01 9 6.02 9 5 9 C5 8.34 5 7.68 5 7 C4.34 7 3.68 7 3 7 C0 2.61538462 0 2.61538462 0 0 Z " fill="#7A7C7E" transform="translate(331,399)"/>
<path d="M0 0 C3.76603869 1.56282982 6.13639151 3.9063475 8.984375 6.7890625 C9.44483215 7.25234955 9.90528931 7.7156366 10.37969971 8.19296265 C11.84125078 9.66565898 13.29567168 11.14517403 14.75 12.625 C15.74302611 13.62806322 16.73651089 14.63067257 17.73046875 15.6328125 C20.15897941 18.08330835 22.58114675 20.5399667 25 23 C22 23 22 23 19.984375 21.2421875 C19.24703125 20.46101563 18.5096875 19.67984375 17.75 18.875 C11.49611968 12.14851929 11.49611968 12.14851929 4 7 C4 6.01 4 5.02 4 4 C3.34 4 2.68 4 2 4 C2 3.34 2 2.68 2 2 C1.34 2 0.68 2 0 2 C0 1.34 0 0.68 0 0 Z " fill="#A3A5A7" transform="translate(397,312)"/>
<path d="M0 0 C8.69830028 7.33002833 8.69830028 7.33002833 11 10 C11 10.99 11 11.98 11 13 C10.34 13 9.68 13 9 13 C9 12.34 9 11.68 9 11 C8.34 11 7.68 11 7 11 C7 10.34 7 9.68 7 9 C6.34 9 5.68 9 5 9 C5 8.34 5 7.68 5 7 C4.34 7 3.68 7 3 7 C3 6.34 3 5.68 3 5 C2.01 4.67 1.02 4.34 0 4 C0 2.68 0 1.36 0 0 Z " fill="#BCBEBF" transform="translate(296,364)"/>
<path d="M0 0 C0.66 0 1.32 0 2 0 C2 0.66 2 1.32 2 2 C2.928125 2.1546875 2.928125 2.1546875 3.875 2.3125 C6 3 6 3 8 6 C6.68 6 5.36 6 4 6 C4 5.34 4 4.68 4 4 C3.34 4 2.68 4 2 4 C1.34 4.66 0.68 5.32 0 6 C0 4.02 0 2.04 0 0 Z " fill="#C5C7C8" transform="translate(288,358)"/>
<path d="M0 0 C1.17539996 0.92652701 2.34010577 1.86663387 3.5 2.8125 C4.1496875 3.33457031 4.799375 3.85664063 5.46875 4.39453125 C7 6 7 6 7 9 C6.34 9 5.68 9 5 9 C5 8.34 5 7.68 5 7 C4.34 7 3.68 7 3 7 C0 2.61538462 0 2.61538462 0 0 Z " fill="#AEB0B1" transform="translate(331,399)"/>
<path d="M0 0 C1.32 0 2.64 0 4 0 C4 0.66 4 1.32 4 2 C4.66 2 5.32 2 6 2 C6.33 3.65 6.66 5.3 7 7 C5.83040013 6.02433888 4.66438823 5.044375 3.5 4.0625 C2.8503125 3.51722656 2.200625 2.97195313 1.53125 2.41015625 C1.0259375 1.94480469 0.520625 1.47945313 0 1 C0 0.67 0 0.34 0 0 Z " fill="#C7C9CB" transform="translate(341,328)"/>
<path d="M0 0 C2.88437779 1.29299694 4.87219421 2.65941363 7 5 C6.67 5.99 6.34 6.98 6 8 C5.34 7.67 4.68 7.34 4 7 C4 6.01 4 5.02 4 4 C3.34 4 2.68 4 2 4 C2 3.34 2 2.68 2 2 C1.34 2 0.68 2 0 2 C0 1.34 0 0.68 0 0 Z " fill="#B9BBBD" transform="translate(397,312)"/>
<path d="M0 0 C1.32 0 2.64 0 4 0 C4 0.66 4 1.32 4 2 C4.66 2 5.32 2 6 2 C5.67 3.32 5.34 4.64 5 6 C3.35 4.02 1.7 2.04 0 0 Z " fill="#CED0D1" transform="translate(383,370)"/>
</svg>
